<?xml version="1.0" encoding="iso-8859-1"?>
<!-- Generator: Adobe Illustrator 19.0.0, SVG Export Plug-In . SVG Version: 6.00 Build 0)  -->
<svg version="1.1" id="Capa_1" xmlns="http://www.w3.org/2000/svg" xmlns:xlink="http://www.w3.org/1999/xlink" x="0px" y="0px"
	 viewBox="0 0 512.001 512.001" style="enable-background:new 0 0 512.001 512.001;" xml:space="preserve">
<path style="fill:#FF3636;" d="M420.907,195.999c0,106.2-42.7,203.801-112.001,253.3c-2.701,1.8-5.9,2.701-8.901,2.701l-88.9-1.199
	l-97.801-1.501C44.005,399.801,0.104,302.2,0.104,196c0-8.401,6.599-15,15-15h391.002
	C414.508,180.999,420.907,187.598,420.907,195.999z"/>
<path style="fill:#E10000;" d="M361.521,390.648c-7.822,0-14.399-6.05-14.956-13.975c-0.557-8.262,5.684-15.425,13.945-15.996
	c57.773-3.97,106.466-44.253,121.173-100.255c1.245-4.775,0.264-9.727-2.71-13.594c-1.685-2.183-5.449-5.83-11.836-5.83H409.92
	c-8.291,0-15-6.709-15-15s6.709-15,15-15h57.217c14.033,0,27.012,6.387,35.596,17.52c8.701,11.294,11.202,25.693,7.554,39.536
	c-17.974,68.452-77.105,117.701-147.726,122.564C362.209,390.633,361.872,390.648,361.521,390.648z"/>
<path style="fill:#F40000;" d="M420.907,195.999c0,106.2-42.7,203.801-112.001,253.3c-2.701,1.8-5.9,2.701-8.901,2.701l-88.9-1.199
	V180.999h195.001C414.508,180.999,420.907,187.598,420.907,195.999z"/>
<path style="fill:#68544F;" d="M406.107,422.001H15.104c-11.1,0-18.3,11.7-13.5,21.599c21,42.301,64.6,68.401,111.701,68.401
	h195.602c47.1,0,89.701-26.1,110.701-68.401C424.406,433.701,417.207,422.001,406.107,422.001z"/>
<path style="fill:#53433F;" d="M419.607,443.6c-21,42.301-63.6,68.401-110.701,68.401h-97.801v-90.001h195.001
	C417.207,422.001,424.406,433.701,419.607,443.6z"/>
<path style="fill:#FFBD86;" d="M318.611,86.175c26.349-23.596,26.349-58.758,0-82.354c-6.123-5.508-15.645-5.01-21.182,1.172
	c-5.522,6.167-4.995,15.659,1.172,21.182c13.029,11.661,13.082,25.938,0,37.646c-26.069,23.276-26.741,58.478,0,82.354
	c6.148,5.517,15.654,5.012,21.182-1.172c5.522-6.167,4.995-15.659-1.172-21.182C305.703,112.259,305.472,98.256,318.611,86.175z"/>
<g>
	<path style="fill:#FED2A4;" d="M228.506,123.899c6.299,5.4,6.899,15,1.199,21c-4.799,5.4-12.599,6.599-18.6,2.699
		c-0.901-0.3-1.8-0.899-2.401-1.5c-26.699-23.699-26.1-59.099,0-82.2c0.901-0.901,1.8-1.8,2.401-2.701c9.6-10.199,9.6-22.2,0-32.399
		c-0.601-0.901-1.5-1.8-2.401-2.701c-6.299-5.4-6.899-15-1.199-21c1.199-1.199,2.401-2.1,3.6-2.999c5.4-3.3,12.599-2.701,17.401,1.8
		c26.4,23.399,26.4,58.801,0,82.2C215.606,98.4,215.606,112.198,228.506,123.899z"/>
	<path style="fill:#FED2A4;" d="M138.61,86.175c26.349-23.596,26.349-58.758,0-82.354c-6.123-5.508-15.645-5.01-21.182,1.172
		c-5.522,6.167-4.995,15.659,1.172,21.182c13.029,11.661,13.082,25.938,0,37.646c-26.069,23.276-26.741,58.478,0,82.354
		c6.148,5.517,15.654,5.012,21.182-1.172c5.522-6.167,4.995-15.659-1.172-21.182C125.702,112.259,125.471,98.256,138.61,86.175z"/>
</g>
<path style="fill:#68544F;" d="M269.306,374.2c-11.7,12.001-27.001,17.1-42.599,17.1c-5.101,0-10.501-0.601-15.601-1.8
	c-17.701-3.3-35.099-12.9-47.701-25.8c-14.099-14.101-23.699-32.701-26.699-51.301c-3.6-21.601,2.399-40.8,16.199-54.6l58.2,10.499
	l2.401,0.3l55.199,60L269.306,374.2z"/>
<path style="fill:#FFBD86;" d="M228.506,123.899c6.299,5.4,6.899,15,1.199,21c-4.799,5.4-12.599,6.599-18.6,2.699V61.197
	c9.6-10.199,9.6-22.2,0-32.399v-26.7c5.4-3.3,12.599-2.701,17.401,1.8c26.4,23.399,26.4,58.801,0,82.2
	C215.606,98.4,215.606,112.198,228.506,123.899z"/>
<g>
	<path style="fill:#53433F;" d="M226.706,391.3c-5.101,0-10.501-0.601-15.601-1.8V268.299l2.401,0.3l55.199,60l0.601,45.601
		C257.605,386.201,242.305,391.3,226.706,391.3z"/>
	<path style="fill:#53433F;" d="M269.306,374.2L152.905,257.8c15.901-16.199,37.5-19.799,58.2-15.601
		c17.701,3.6,35.099,13.2,47.701,26.1C287.007,296.201,299.005,344.8,269.306,374.2z"/>
</g>
<path style="fill:#3E322E;" d="M269.306,374.2l-58.2-58.2v-73.801c17.701,3.6,35.099,13.2,47.701,26.1
	C287.007,296.201,299.005,344.8,269.306,374.2z"/>
<g>
</g>
<g>
</g>
<g>
</g>
<g>
</g>
<g>
</g>
<g>
</g>
<g>
</g>
<g>
</g>
<g>
</g>
<g>
</g>
<g>
</g>
<g>
</g>
<g>
</g>
<g>
</g>
<g>
</g>
</svg>
